# xmcd
#
# Track frame offsets: 
#        150
#        12750
#        26582
#        40717
#        53370
#        69256
#        83551
#        114288
#        127324
#        140249
#        154685
#        167514
#        181348
#        195784
#        212067
#        223895
#        238412
#        250859
#        261937
#        276391
#        290748
#        304421
#
# Disc length: 4247 seconds
#
# Revision: 0
# Processed by: cddbd v1.5.2PL0 Copyright (c) Steve Scherf et al.
# Submitted via: ExactAudioCopy v1.3
#
DISCID=42109516
DTITLE=Various Artist - Blues Classics CD Volume 17
DYEAR=1900
DGENRE=Blues
TTITLE0=B.B. King - Got the Blues
TTITLE1=Victoria Spivey - Blood Thirsty Blues
TTITLE2=Mississippi Sheiks - Baby Keeps Stealing Lovin' On Me
TTITLE3=Bo Carter - Howling Tom Cat Blues
TTITLE4=Texas Alexander with The Mississippi Sheiks - Days Is Lonesome
TTITLE5=Charlie Spand - Ain't Gonna Stand for That
TTITLE6=Jim Jackson - I'm Gonna Move To Louisiana - Part 1 and Part 2
TTITLE7=Leola B. Wilson with Blind Blake - Ashley St. Blues
TTITLE8=Blind Lemon Jefferson - Bad Luck Blues
TTITLE9=Lonnie Johnson - She's Making Whoopee in Hell Tonight
TTITLE10=Bessie Smith - Shave 'Em Dry
TTITLE11=Mississippi Sarah and Daddy Stovepipe - Read Your A B C's
TTITLE12=Juke Boy Barner - Life Is A Cheater (Irma Records Demo)
TTITLE13=Juke Boy Barner - Life Is A Cheater (Music City Records Demo)
TTITLE14=Juke Boy Barner - I Got Hip To It
TTITLE15=William Moore - Tillie Lee
TTITLE16=Leola B. Wilson with Blind Blake - Dying Blues
TTITLE17=Blues Boy Bill - Come On Babe
TTITLE18=Blues Boy Bill - Little Boy Blue
TTITLE19=Joe Stone (Jaydee Short) - It's Hard Time
TTITLE20=Joe Stone (Jaydee Short) - Back Door Blues
TTITLE21=Mississippi Sheiks - Back To Mississippi
EXTD=
EXTT0=
EXTT1=
EXTT2=
EXTT3=
EXTT4=
EXTT5=
EXTT6=
EXTT7=
EXTT8=
EXTT9=
EXTT10=
EXTT11=
EXTT12=
EXTT13=
EXTT14=
EXTT15=
EXTT16=
EXTT17=
EXTT18=
EXTT19=
EXTT20=
EXTT21=
PLAYORDER=
